<svg id="visual" viewBox="0 0 960 540" width="960" height="540" xmlns="http://www.w3.org/2000/svg" xmlns:xlink="http://www.w3.org/1999/xlink" version="1.1"><rect x="0" y="0" width="960" height="540" fill='none'></rect><defs><linearGradient id="grad1_0" x1="43.8%" y1="0%" x2="100%" y2="100%"><stop offset="14.444444444444446%" stop-color="#6600ff" stop-opacity="1"></stop><stop offset="85.55555555555554%" stop-color="#6600ff" stop-opacity="1"></stop></linearGradient></defs><defs><linearGradient id="grad1_1" x1="43.8%" y1="0%" x2="100%" y2="100%"><stop offset="14.444444444444446%" stop-color="#6600ff" stop-opacity="1"></stop><stop offset="85.55555555555554%" stop-color="#aa6cff" stop-opacity="1"></stop></linearGradient></defs><defs><linearGradient id="grad1_2" x1="43.8%" y1="0%" x2="100%" y2="100%"><stop offset="14.444444444444446%" stop-color="#dab5ff" stop-opacity="1"></stop><stop offset="85.55555555555554%" stop-color="#aa6cff" stop-opacity="1"></stop></linearGradient></defs><defs><linearGradient id="grad1_3" x1="43.8%" y1="0%" x2="100%" y2="100%"><stop offset="14.444444444444446%" stop-color="#dab5ff" stop-opacity="1"></stop><stop offset="85.55555555555554%" stop-color="#ffffff" stop-opacity="1"></stop></linearGradient></defs><defs><linearGradient id="grad2_0" x1="0%" y1="0%" x2="56.3%" y2="100%"><stop offset="14.444444444444446%" stop-color="#6600ff" stop-opacity="1"></stop><stop offset="85.55555555555554%" stop-color="#6600ff" stop-opacity="1"></stop></linearGradient></defs><defs><linearGradient id="grad2_1" x1="0%" y1="0%" x2="56.3%" y2="100%"><stop offset="14.444444444444446%" stop-color="#aa6cff" stop-opacity="1"></stop><stop offset="85.55555555555554%" stop-color="#6600ff" stop-opacity="1"></stop></linearGradient></defs><defs><linearGradient id="grad2_2" x1="0%" y1="0%" x2="56.3%" y2="100%"><stop offset="14.444444444444446%" stop-color="#aa6cff" stop-opacity="1"></stop><stop offset="85.55555555555554%" stop-color="#dab5ff" stop-opacity="1"></stop></linearGradient></defs><defs><linearGradient id="grad2_3" x1="0%" y1="0%" x2="56.3%" y2="100%"><stop offset="14.444444444444446%" stop-color="#ffffff" stop-opacity="1"></stop><stop offset="85.55555555555554%" stop-color="#dab5ff" stop-opacity="1"></stop></linearGradient></defs><g transform="translate(960, 0)"><path d="M0 324C-45 295.9 -90 267.7 -141 244.2C-192 220.7 -249.1 201.9 -280.6 162C-312.1 122.1 -318 61 -324 0L0 0Z" fill="#eddaff"></path><path d="M0 243C-33.7 221.9 -67.5 200.8 -105.7 183.2C-144 165.6 -186.8 151.4 -210.4 121.5C-234.1 91.6 -238.5 45.8 -243 0L0 0Z" fill="#c391ff"></path><path d="M0 162C-22.5 147.9 -45 133.9 -70.5 122.1C-96 110.4 -124.5 101 -140.3 81C-156 61 -159 30.5 -162 0L0 0Z" fill="#8c44ff"></path><path d="M0 81C-11.2 74 -22.5 66.9 -35.2 61.1C-48 55.2 -62.3 50.5 -70.1 40.5C-78 30.5 -79.5 15.3 -81 0L0 0Z" fill="#6600ff"></path></g><g transform="translate(0, 540)"><path d="M0 -324C39.4 -286.2 78.8 -248.3 130.5 -226C182.2 -203.8 246.3 -197.1 280.6 -162C314.9 -126.9 319.4 -63.5 324 0L0 0Z" fill="#eddaff"></path><path d="M0 -243C29.5 -214.6 59.1 -186.2 97.9 -169.5C136.7 -152.8 184.7 -147.8 210.4 -121.5C236.2 -95.2 239.6 -47.6 243 0L0 0Z" fill="#c391ff"></path><path d="M0 -162C19.7 -143.1 39.4 -124.2 65.2 -113C91.1 -101.9 123.1 -98.5 140.3 -81C157.4 -63.5 159.7 -31.7 162 0L0 0Z" fill="#8c44ff"></path><path d="M0 -81C9.8 -71.5 19.7 -62.1 32.6 -56.5C45.6 -50.9 61.6 -49.3 70.1 -40.5C78.7 -31.7 79.9 -15.9 81 0L0 0Z" fill="#6600ff"></path></g></svg>